<mxfile host="www.draw.io" modified="2019-12-16T08:30:13.021Z" agent="Mozilla/5.0 (Windows NT 10.0; Win64; x64) AppleWebKit/537.36 (KHTML, like Gecko) Chrome/79.0.3945.79 Safari/537.36" etag="6eQf8q6xiOz5sKmRIEFZ" version="12.4.2" type="github" pages="1">
  <diagram id="oVJsgGk-9aQhg6q5KXIx" name="Page-1">
    <mxGraphModel dx="1422" dy="762" grid="1" gridSize="10" guides="1" tooltips="1" connect="1" arrows="1" fold="1" page="1" pageScale="1" pageWidth="1654" pageHeight="1169" math="0" shadow="0">
      <root>
        <mxCell id="0"/>
        <mxCell id="1" parent="0"/>
        <mxCell id="fn6-giFhHIx26uNFepma-4" value="" style="rounded=0;whiteSpace=wrap;html=1;" vertex="1" parent="1">
          <mxGeometry x="730" y="240" width="360" height="360" as="geometry"/>
        </mxCell>
        <mxCell id="fn6-giFhHIx26uNFepma-20" style="edgeStyle=orthogonalEdgeStyle;rounded=0;orthogonalLoop=1;jettySize=auto;html=1;exitX=0.25;exitY=1;exitDx=0;exitDy=0;" edge="1" parent="1" source="fn6-giFhHIx26uNFepma-1" target="fn6-giFhHIx26uNFepma-2">
          <mxGeometry relative="1" as="geometry">
            <Array as="points">
              <mxPoint x="427" y="200"/>
            </Array>
          </mxGeometry>
        </mxCell>
        <mxCell id="fn6-giFhHIx26uNFepma-21" style="edgeStyle=orthogonalEdgeStyle;rounded=0;orthogonalLoop=1;jettySize=auto;html=1;exitX=0.5;exitY=1;exitDx=0;exitDy=0;" edge="1" parent="1" source="fn6-giFhHIx26uNFepma-1" target="fn6-giFhHIx26uNFepma-6">
          <mxGeometry relative="1" as="geometry">
            <Array as="points">
              <mxPoint x="865" y="200"/>
            </Array>
          </mxGeometry>
        </mxCell>
        <mxCell id="fn6-giFhHIx26uNFepma-1" value="MQ" style="rounded=1;whiteSpace=wrap;html=1;fillColor=#CCFFE6;" vertex="1" parent="1">
          <mxGeometry x="370" y="130" width="780" height="70" as="geometry"/>
        </mxCell>
        <mxCell id="fn6-giFhHIx26uNFepma-22" style="edgeStyle=orthogonalEdgeStyle;rounded=0;orthogonalLoop=1;jettySize=auto;html=1;exitX=0.25;exitY=0;exitDx=0;exitDy=0;entryX=0.028;entryY=1;entryDx=0;entryDy=0;entryPerimeter=0;" edge="1" parent="1" source="fn6-giFhHIx26uNFepma-2" target="fn6-giFhHIx26uNFepma-1">
          <mxGeometry relative="1" as="geometry">
            <mxPoint x="390" y="210" as="targetPoint"/>
            <Array as="points">
              <mxPoint x="392" y="300"/>
            </Array>
          </mxGeometry>
        </mxCell>
        <mxCell id="fn6-giFhHIx26uNFepma-2" value="HHT C++" style="rounded=0;whiteSpace=wrap;html=1;fillColor=#D5E8D4;" vertex="1" parent="1">
          <mxGeometry x="367" y="300" width="120" height="60" as="geometry"/>
        </mxCell>
        <mxCell id="fn6-giFhHIx26uNFepma-23" style="edgeStyle=orthogonalEdgeStyle;rounded=0;orthogonalLoop=1;jettySize=auto;html=1;exitX=1;exitY=0.5;exitDx=0;exitDy=0;entryX=0;entryY=0.5;entryDx=0;entryDy=0;" edge="1" parent="1" source="fn6-giFhHIx26uNFepma-5" target="fn6-giFhHIx26uNFepma-8">
          <mxGeometry relative="1" as="geometry"/>
        </mxCell>
        <mxCell id="fn6-giFhHIx26uNFepma-24" style="edgeStyle=orthogonalEdgeStyle;rounded=0;orthogonalLoop=1;jettySize=auto;html=1;exitX=0;exitY=0.5;exitDx=0;exitDy=0;" edge="1" parent="1" source="fn6-giFhHIx26uNFepma-5" target="fn6-giFhHIx26uNFepma-2">
          <mxGeometry relative="1" as="geometry"/>
        </mxCell>
        <mxCell id="fn6-giFhHIx26uNFepma-5" value="配置中心" style="rhombus;whiteSpace=wrap;html=1;fillColor=#FFCC99;" vertex="1" parent="1">
          <mxGeometry x="590" y="300" width="80" height="80" as="geometry"/>
        </mxCell>
        <mxCell id="fn6-giFhHIx26uNFepma-25" style="edgeStyle=orthogonalEdgeStyle;rounded=0;orthogonalLoop=1;jettySize=auto;html=1;exitX=0.5;exitY=1;exitDx=0;exitDy=0;" edge="1" parent="1" source="fn6-giFhHIx26uNFepma-6" target="fn6-giFhHIx26uNFepma-8">
          <mxGeometry relative="1" as="geometry"/>
        </mxCell>
        <mxCell id="fn6-giFhHIx26uNFepma-6" value="MQ消费者模块" style="rounded=1;whiteSpace=wrap;html=1;fillColor=#CCFFFF;" vertex="1" parent="1">
          <mxGeometry x="810" y="270" width="110" height="30" as="geometry"/>
        </mxCell>
        <mxCell id="fn6-giFhHIx26uNFepma-26" style="edgeStyle=orthogonalEdgeStyle;rounded=0;orthogonalLoop=1;jettySize=auto;html=1;exitX=0.5;exitY=1;exitDx=0;exitDy=0;" edge="1" parent="1" source="fn6-giFhHIx26uNFepma-8" target="fn6-giFhHIx26uNFepma-11">
          <mxGeometry relative="1" as="geometry"/>
        </mxCell>
        <mxCell id="fn6-giFhHIx26uNFepma-8" value="动态配置开关模块" style="rounded=1;whiteSpace=wrap;html=1;fillColor=#FFE6CC;" vertex="1" parent="1">
          <mxGeometry x="810" y="335" width="110" height="30" as="geometry"/>
        </mxCell>
        <mxCell id="fn6-giFhHIx26uNFepma-28" style="edgeStyle=orthogonalEdgeStyle;rounded=0;orthogonalLoop=1;jettySize=auto;html=1;exitX=0;exitY=0;exitDx=120;exitDy=35;exitPerimeter=0;entryX=0;entryY=0.5;entryDx=0;entryDy=0;" edge="1" parent="1" source="fn6-giFhHIx26uNFepma-9" target="fn6-giFhHIx26uNFepma-10">
          <mxGeometry relative="1" as="geometry"/>
        </mxCell>
        <mxCell id="fn6-giFhHIx26uNFepma-9" value="静态配置文件" style="shape=cube;whiteSpace=wrap;html=1;boundedLbl=1;backgroundOutline=1;darkOpacity=0.05;darkOpacity2=0.1;fillColor=#999999;" vertex="1" parent="1">
          <mxGeometry x="570" y="390" width="120" height="50" as="geometry"/>
        </mxCell>
        <mxCell id="fn6-giFhHIx26uNFepma-27" style="edgeStyle=orthogonalEdgeStyle;rounded=0;orthogonalLoop=1;jettySize=auto;html=1;exitX=0.5;exitY=1;exitDx=0;exitDy=0;entryX=0.25;entryY=0;entryDx=0;entryDy=0;" edge="1" parent="1" source="fn6-giFhHIx26uNFepma-10" target="fn6-giFhHIx26uNFepma-11">
          <mxGeometry relative="1" as="geometry"/>
        </mxCell>
        <mxCell id="fn6-giFhHIx26uNFepma-10" value="文件解析器" style="rounded=1;whiteSpace=wrap;html=1;fillColor=#E6E6E6;" vertex="1" parent="1">
          <mxGeometry x="735" y="410" width="110" height="30" as="geometry"/>
        </mxCell>
        <mxCell id="fn6-giFhHIx26uNFepma-29" style="edgeStyle=orthogonalEdgeStyle;rounded=0;orthogonalLoop=1;jettySize=auto;html=1;exitX=0.5;exitY=1;exitDx=0;exitDy=0;" edge="1" parent="1" source="fn6-giFhHIx26uNFepma-11" target="fn6-giFhHIx26uNFepma-15">
          <mxGeometry relative="1" as="geometry"/>
        </mxCell>
        <mxCell id="fn6-giFhHIx26uNFepma-11" value="业务逻辑处理" style="rounded=1;whiteSpace=wrap;html=1;fillColor=#FF9999;" vertex="1" parent="1">
          <mxGeometry x="810" y="470" width="110" height="30" as="geometry"/>
        </mxCell>
        <mxCell id="fn6-giFhHIx26uNFepma-34" style="edgeStyle=orthogonalEdgeStyle;rounded=0;orthogonalLoop=1;jettySize=auto;html=1;exitX=0.5;exitY=0;exitDx=0;exitDy=0;entryX=0.75;entryY=1;entryDx=0;entryDy=0;" edge="1" parent="1" source="fn6-giFhHIx26uNFepma-13" target="fn6-giFhHIx26uNFepma-1">
          <mxGeometry relative="1" as="geometry"/>
        </mxCell>
        <mxCell id="fn6-giFhHIx26uNFepma-13" value="MQ生产者模块" style="rounded=1;whiteSpace=wrap;html=1;fillColor=#CCFFFF;" vertex="1" parent="1">
          <mxGeometry x="950" y="270" width="110" height="30" as="geometry"/>
        </mxCell>
        <mxCell id="fn6-giFhHIx26uNFepma-14" value="打印" style="rounded=0;whiteSpace=wrap;html=1;fillColor=#7EA6E0;" vertex="1" parent="1">
          <mxGeometry x="570" y="515" width="120" height="60" as="geometry"/>
        </mxCell>
        <mxCell id="fn6-giFhHIx26uNFepma-32" style="edgeStyle=orthogonalEdgeStyle;rounded=0;orthogonalLoop=1;jettySize=auto;html=1;exitX=0.5;exitY=1;exitDx=0;exitDy=0;" edge="1" parent="1" source="fn6-giFhHIx26uNFepma-15" target="fn6-giFhHIx26uNFepma-13">
          <mxGeometry relative="1" as="geometry"/>
        </mxCell>
        <mxCell id="fn6-giFhHIx26uNFepma-35" style="edgeStyle=orthogonalEdgeStyle;rounded=0;orthogonalLoop=1;jettySize=auto;html=1;exitX=0;exitY=0.5;exitDx=0;exitDy=0;entryX=1;entryY=0.5;entryDx=0;entryDy=0;" edge="1" parent="1" source="fn6-giFhHIx26uNFepma-15" target="fn6-giFhHIx26uNFepma-14">
          <mxGeometry relative="1" as="geometry"/>
        </mxCell>
        <mxCell id="fn6-giFhHIx26uNFepma-15" value="打印模块" style="rounded=1;whiteSpace=wrap;html=1;fillColor=#A9C4EB;" vertex="1" parent="1">
          <mxGeometry x="810" y="530" width="110" height="30" as="geometry"/>
        </mxCell>
        <mxCell id="fn6-giFhHIx26uNFepma-33" value="HHT JAVA" style="text;html=1;align=center;verticalAlign=middle;resizable=0;points=[];;autosize=1;" vertex="1" parent="1">
          <mxGeometry x="735" y="250" width="70" height="20" as="geometry"/>
        </mxCell>
      </root>
    </mxGraphModel>
  </diagram>
</mxfile>
